<svg id="visual" viewBox="0 0 960 200" width="960" height="200" xmlns="http://www.w3.org/2000/svg" xmlns:xlink="http://www.w3.org/1999/xlink" version="1.1"><rect x="0" y="0" width="960" height="200" fill="#000101"></rect><path d="M0 153L22.8 145.3C45.7 137.7 91.3 122.3 137 122.2C182.7 122 228.3 137 274 142.7C319.7 148.3 365.3 144.7 411.2 140C457 135.3 503 129.7 548.8 129.7C594.7 129.7 640.3 135.3 686 133C731.7 130.7 777.3 120.3 823 115.7C868.7 111 914.3 112 937.2 112.5L960 113L960 0L937.2 0C914.3 0 868.7 0 823 0C777.3 0 731.7 0 686 0C640.3 0 594.7 0 548.8 0C503 0 457 0 411.2 0C365.3 0 319.7 0 274 0C228.3 0 182.7 0 137 0C91.3 0 45.7 0 22.8 0L0 0Z" fill="#38aaa4"></path><path d="M0 93L22.8 94C45.7 95 91.3 97 137 102.3C182.7 107.7 228.3 116.3 274 114.5C319.7 112.7 365.3 100.3 411.2 98C457 95.7 503 103.3 548.8 109.7C594.7 116 640.3 121 686 119.2C731.7 117.3 777.3 108.7 823 105.8C868.7 103 914.3 106 937.2 107.5L960 109L960 0L937.2 0C914.3 0 868.7 0 823 0C777.3 0 731.7 0 686 0C640.3 0 594.7 0 548.8 0C503 0 457 0 411.2 0C365.3 0 319.7 0 274 0C228.3 0 182.7 0 137 0C91.3 0 45.7 0 22.8 0L0 0Z" fill="#6abcb8"></path><path d="M0 78L22.8 79.8C45.7 81.7 91.3 85.3 137 83.5C182.7 81.7 228.3 74.3 274 75.2C319.7 76 365.3 85 411.2 84.2C457 83.3 503 72.7 548.8 73.3C594.7 74 640.3 86 686 87.2C731.7 88.3 777.3 78.7 823 77C868.7 75.3 914.3 81.7 937.2 84.8L960 88L960 0L937.2 0C914.3 0 868.7 0 823 0C777.3 0 731.7 0 686 0C640.3 0 594.7 0 548.8 0C503 0 457 0 411.2 0C365.3 0 319.7 0 274 0C228.3 0 182.7 0 137 0C91.3 0 45.7 0 22.8 0L0 0Z" fill="#93cecb"></path><path d="M0 38L22.8 38.5C45.7 39 91.3 40 137 41.2C182.7 42.3 228.3 43.7 274 46.8C319.7 50 365.3 55 411.2 59C457 63 503 66 548.8 62.5C594.7 59 640.3 49 686 49.2C731.7 49.3 777.3 59.7 823 60.2C868.7 60.7 914.3 51.3 937.2 46.7L960 42L960 0L937.2 0C914.3 0 868.7 0 823 0C777.3 0 731.7 0 686 0C640.3 0 594.7 0 548.8 0C503 0 457 0 411.2 0C365.3 0 319.7 0 274 0C228.3 0 182.7 0 137 0C91.3 0 45.7 0 22.8 0L0 0Z" fill="#b9e0de"></path><path d="M0 34L22.8 33.5C45.7 33 91.3 32 137 30.8C182.7 29.7 228.3 28.3 274 27.8C319.7 27.3 365.3 27.7 411.2 28.2C457 28.7 503 29.3 548.8 31C594.7 32.7 640.3 35.3 686 34.8C731.7 34.3 777.3 30.7 823 31C868.7 31.3 914.3 35.7 937.2 37.8L960 40L960 0L937.2 0C914.3 0 868.7 0 823 0C777.3 0 731.7 0 686 0C640.3 0 594.7 0 548.8 0C503 0 457 0 411.2 0C365.3 0 319.7 0 274 0C228.3 0 182.7 0 137 0C91.3 0 45.7 0 22.8 0L0 0Z" fill="#def2f1"></path></svg>