<svg id="visual" viewBox="0 0 960 100" width="960" height="100" xmlns="http://www.w3.org/2000/svg" xmlns:xlink="http://www.w3.org/1999/xlink" version="1.1"><rect x="0" y="0" width="960" height="100" fill="#000101"></rect><path d="M0 28L22.8 27.3C45.7 26.7 91.3 25.3 137 24C182.7 22.7 228.3 21.3 274 24.3C319.7 27.3 365.3 34.7 411.2 36.7C457 38.7 503 35.3 548.8 34.5C594.7 33.7 640.3 35.3 686 37C731.7 38.7 777.3 40.3 823 39.7C868.7 39 914.3 36 937.2 34.5L960 33L960 101L937.2 101C914.3 101 868.7 101 823 101C777.3 101 731.7 101 686 101C640.3 101 594.7 101 548.8 101C503 101 457 101 411.2 101C365.3 101 319.7 101 274 101C228.3 101 182.7 101 137 101C91.3 101 45.7 101 22.8 101L0 101Z" fill="#38aaa4"></path><path d="M0 46L22.8 47.2C45.7 48.3 91.3 50.7 137 51.3C182.7 52 228.3 51 274 50.5C319.7 50 365.3 50 411.2 51.5C457 53 503 56 548.8 55.8C594.7 55.7 640.3 52.3 686 50.5C731.7 48.7 777.3 48.3 823 50.3C868.7 52.3 914.3 56.7 937.2 58.8L960 61L960 101L937.2 101C914.3 101 868.7 101 823 101C777.3 101 731.7 101 686 101C640.3 101 594.7 101 548.8 101C503 101 457 101 411.2 101C365.3 101 319.7 101 274 101C228.3 101 182.7 101 137 101C91.3 101 45.7 101 22.8 101L0 101Z" fill="#93cecb"></path><path d="M0 73L22.8 73.2C45.7 73.3 91.3 73.7 137 74.5C182.7 75.3 228.3 76.7 274 77.8C319.7 79 365.3 80 411.2 80.2C457 80.3 503 79.7 548.8 79.3C594.7 79 640.3 79 686 76.5C731.7 74 777.3 69 823 67.5C868.7 66 914.3 68 937.2 69L960 70L960 101L937.2 101C914.3 101 868.7 101 823 101C777.3 101 731.7 101 686 101C640.3 101 594.7 101 548.8 101C503 101 457 101 411.2 101C365.3 101 319.7 101 274 101C228.3 101 182.7 101 137 101C91.3 101 45.7 101 22.8 101L0 101Z" fill="#def2f1"></path></svg>