<svg id="visual" viewBox="0 0 960 200" width="960" height="200" xmlns="http://www.w3.org/2000/svg" xmlns:xlink="http://www.w3.org/1999/xlink" version="1.1"><rect x="0" y="0" width="960" height="200" fill="#000101"></rect><path d="M0 50L22.8 47.3C45.7 44.7 91.3 39.3 137 37.3C182.7 35.3 228.3 36.7 274 43.3C319.7 50 365.3 62 411.2 63.2C457 64.3 503 54.7 548.8 53.8C594.7 53 640.3 61 686 61.5C731.7 62 777.3 55 823 56C868.7 57 914.3 66 937.2 70.5L960 75L960 201L937.2 201C914.3 201 868.7 201 823 201C777.3 201 731.7 201 686 201C640.3 201 594.7 201 548.8 201C503 201 457 201 411.2 201C365.3 201 319.7 201 274 201C228.3 201 182.7 201 137 201C91.3 201 45.7 201 22.8 201L0 201Z" fill="#38aaa4"></path><path d="M0 89L22.8 87.2C45.7 85.3 91.3 81.7 137 77.3C182.7 73 228.3 68 274 69C319.7 70 365.3 77 411.2 79C457 81 503 78 548.8 78.8C594.7 79.7 640.3 84.3 686 82.5C731.7 80.7 777.3 72.3 823 74C868.7 75.7 914.3 87.3 937.2 93.2L960 99L960 201L937.2 201C914.3 201 868.7 201 823 201C777.3 201 731.7 201 686 201C640.3 201 594.7 201 548.8 201C503 201 457 201 411.2 201C365.3 201 319.7 201 274 201C228.3 201 182.7 201 137 201C91.3 201 45.7 201 22.8 201L0 201Z" fill="#6abcb8"></path><path d="M0 89L22.8 92.2C45.7 95.3 91.3 101.7 137 106.2C182.7 110.7 228.3 113.3 274 114.7C319.7 116 365.3 116 411.2 115.3C457 114.7 503 113.3 548.8 115.3C594.7 117.3 640.3 122.7 686 122.8C731.7 123 777.3 118 823 114C868.7 110 914.3 107 937.2 105.5L960 104L960 201L937.2 201C914.3 201 868.7 201 823 201C777.3 201 731.7 201 686 201C640.3 201 594.7 201 548.8 201C503 201 457 201 411.2 201C365.3 201 319.7 201 274 201C228.3 201 182.7 201 137 201C91.3 201 45.7 201 22.8 201L0 201Z" fill="#93cecb"></path><path d="M0 120L22.8 120.2C45.7 120.3 91.3 120.7 137 123.3C182.7 126 228.3 131 274 133.2C319.7 135.3 365.3 134.7 411.2 136.2C457 137.7 503 141.3 548.8 139.3C594.7 137.3 640.3 129.7 686 127.8C731.7 126 777.3 130 823 131.8C868.7 133.7 914.3 133.3 937.2 133.2L960 133L960 201L937.2 201C914.3 201 868.7 201 823 201C777.3 201 731.7 201 686 201C640.3 201 594.7 201 548.8 201C503 201 457 201 411.2 201C365.3 201 319.7 201 274 201C228.3 201 182.7 201 137 201C91.3 201 45.7 201 22.8 201L0 201Z" fill="#b9e0de"></path><path d="M0 160L22.8 159.7C45.7 159.3 91.3 158.7 137 159.3C182.7 160 228.3 162 274 165.8C319.7 169.7 365.3 175.3 411.2 176.2C457 177 503 173 548.8 168.2C594.7 163.3 640.3 157.7 686 159.3C731.7 161 777.3 170 823 174.2C868.7 178.3 914.3 177.7 937.2 177.3L960 177L960 201L937.2 201C914.3 201 868.7 201 823 201C777.3 201 731.7 201 686 201C640.3 201 594.7 201 548.8 201C503 201 457 201 411.2 201C365.3 201 319.7 201 274 201C228.3 201 182.7 201 137 201C91.3 201 45.7 201 22.8 201L0 201Z" fill="#def2f1"></path></svg>